<?xml version="1.0" encoding="utf-8"?><svg version="1.1" id="Layer_1" xmlns="http://www.w3.org/2000/svg" xmlns:xlink="http://www.w3.org/1999/xlink" x="0px" y="0px" viewBox="0 0 104.22 122.88" style="enable-background:new 0 0 104.22 122.88" xml:space="preserve"><g><path d="M55.91,52.26c4.7,8.64,6.92,18.04,7.18,27.44c0.18,6.5-0.57,13-2.09,19.24c3.27-1.19,6.38-2.77,9.4-4.72 c2.48-1.6,4.91-3.43,7.33-5.5c-3.79-13.71,6.87-21.87,26.3-24.24c1.84,22.99-10.71,32.72-24.86,28.07 c-2.2,1.82-4.42,3.46-6.69,4.92c-4.02,2.59-8.2,4.59-12.71,5.94c-2.06,6.69-4.98,13-8.54,18.59c-0.57,0.9-1.76,1.16-2.65,0.59 c-0.9-0.57-1.16-1.76-0.59-2.65c7.21-11.3,11.67-25.71,11.26-40.12c-0.31-10.85-3.39-21.69-10.15-31.2 c5.33,18.49,0.98,28.86-8.32,35.52c-10.46-9.69-11.61-22.49-2.54-39.94C24.86,55.25,12.41,58.4,0,50.13 c2.51-12.42,14.62-17.5,35.61-15.69C21.42,26.32,14.17,17,19.4,0c11.52,1.2,21.39,8.65,24.89,29.75 C50.06,13.32,59.46,2.33,72.81,2.91c2.72,13.08-0.69,23.68-20.11,34.27c17.09-0.05,29.53,2.38,32.52,18.26 C74.76,61.45,65.4,59.53,55.91,52.26L55.91,52.26z"/></g></svg>