<?xml version="1.0" encoding="utf-8"?>
<!-- Generator: Adobe Illustrator 28.0.0, SVG Export Plug-In . SVG Version: 6.00 Build 0)  -->
<svg version="1.1"
	 id="Ebene_1" image-rendering="optimizeQuality" text-rendering="geometricPrecision" shape-rendering="geometricPrecision"
	 xmlns="http://www.w3.org/2000/svg" xmlns:xlink="http://www.w3.org/1999/xlink" x="0px" y="0px" viewBox="0 0 512 323.3"
	 style="enable-background:new 0 0 512 323.3;" xml:space="preserve">
<style type="text/css">
	.st0{fill-rule:evenodd;clip-rule:evenodd;fill:#FF0000;}
</style>
<path class="st0" d="M360.3,234.3l110-52.3c10-4.7,14.9-17.1,9.5-26.7l-1.9-3.3l9.6-4.6c10.6-5.1,18.3-14,21.9-24.3
	c3.6-10.3,3.4-22-1.6-32.6l-26.1-55c-5.1-10.6-14-18.3-24.3-21.9c-10.3-3.7-22-3.4-32.6,1.6l-18.1,8.6l-0.4,0.2
	c-5.5-9-16.5-13.2-26.2-8.6L288,59.1c-9.9,4.7-13.5,16.4-9.5,26.7l24.8,62.4l-51-18.6c-3.6-1.3-2.8-0.8-4.4-4.3l-12.7-28.1
	c-3.1-6.9-3.3-10.4-9.8-14.5c-3.7-2.3-7.6-3.9-12.2-3.9l-31.8,93.2c3,1.8,6.3,3.2,10,3.7c6.4,0.7,10-2.1,15.6-4.9
	c10.7-5.2,21.4-10.4,32.1-15.6c1.5-0.7,1.1-0.9,2.5-0.1l82,44.5l10,25.2C337.7,235,350.4,239,360.3,234.3L360.3,234.3z M15.1,315
	c-3.7,0.1-6.3,5.3-5,8.3h137.7c-3-7.9-11-11.4-14.7-11.6c-1.8-18.4-19.8-25-33.1-17.9c4.9-13.6-5.2-16.7-12.8-14.8
	c-2.5-10.6-4.4-23.6-1.3-33l0.1-0.3l50.5-19.9l-46.4,26.6c7.7,7.4,16.7,11.3,26.9,12c21.1,1.4,40.5-8,53.5-24.3
	c2.5-3.1,4.6-6.5,6.5-10.1c2.3-4.4,10.4-19.1,9.3-22.6c-1.7-5.1-25.8-8.6-31.3-9.4c-28.6-3.9-63.5,0.8-71.2,34.4
	c-0.4,1.6-0.5,3.3-0.3,5l-1.6,1l-1.5-1.1c0.3-1.2,0.4-2.4,0.4-3.6c-0.7-29-28.7-38.8-52.8-40.4c-4.7-0.3-25-1.5-27.3,2.5
	c-1.6,2.7,2.7,16.1,3.8,20.1c0.9,3.3,2.1,6.5,3.6,9.4c7.9,15.6,22.4,26.6,39.9,29c8.5,1.2,16.6-0.5,24.2-5.3l-33.7-29.7l36.4,23.7
	l0,0.3c2.8,9.6,2.4,23.3,0,35.1c-3.5,1.6-6.3,4.3-6.5,8c-17.8-12-34.6-2-32.9,14.9C29.2,298,14.6,300.1,15.1,315L15.1,315z
	 M102.8,159.7c-4.9,4.9,1.3,11.4,6.3,7.6c2.5-2,4.9-3.7,7.5-5.5c5.3-3.2,0.2-11.7-5.2-8.4C108.4,155.2,105.5,157.5,102.8,159.7
	L102.8,159.7z M129.7,144c-6.3,2.5-2.3,11.6,3.5,9.3c2.9-1,5.8-2,8.8-2.7c6.1-1.2,4.4-11-2.2-9.7C136.3,141.9,133.2,142.7,129.7,144
	z M160.9,139.1c-7.3,0-6.4,9.9-0.6,9.9c3,0.2,6.1,0.6,8.9,1.4c6.8,1.4,8.2-8.4,2.3-9.6C168,139.9,164.4,139.4,160.9,139.1z
	 M94.1,134.8c-1.5,1.5-1.5,4.1-0.4,5.9c2.1,2.8,5.4,3.1,7.9,0.6l1.5-1.6c4.5-4.5-2.7-11.4-7.2-6.8L94.1,134.8z M112.4,119.8
	c-5.6,3.4-0.5,11.9,5.1,8.5c2.7-1.6,5.4-3,8.2-4.3c5.5-2.2,2.2-11.5-3.7-9.2C118.9,116.1,115.2,118,112.4,119.8z M141.5,108.5
	c-6.2,1.2-4.7,10.8,1.9,9.7c3.1-0.6,6.1-1,9.2-1.3c5.6,0,6.7-9.9-0.8-9.9C148.4,107.2,144.9,107.8,141.5,108.5L141.5,108.5z
	 M173.1,108.4c-6.8-1.4-8.3,8.4-2.3,9.6c2.9,0.7,5.8,1.6,8.5,2.8c6.4,2.6,9.7-6.8,4-9.1C180,110.3,176.6,109.2,173.1,108.4
	L173.1,108.4z M96.5,97.4c-4.9,4.9,2.4,11.6,6.8,7.2c2.1-2.1,4.6-4.1,7.1-5.8c1.8-1.1,2.7-3.8,1.8-5.8c-1.2-3.1-4.6-4.1-7.5-2.3
	C101.8,92.7,99,94.9,96.5,97.4z M123.5,81.1c-6.5,2.6-2.3,11.6,3.3,9.3c2.9-1.1,5.9-1.9,8.9-2.6c6-1.2,4.7-10.8-2-9.7
	C130.4,78.7,126.6,80,123.5,81.1z M154.3,75.9c-6.7,0-6.5,9.9-0.1,9.9c3,0,6.3,0.2,9.3,0.6c5.6,1.1,8.4-8.4,1.3-9.8
	C161.5,76.1,157.7,75.9,154.3,75.9z M185.2,82.1c-6.3-2.5-9.7,6.8-3.9,9.1c2.7,1.1,5.6,2.7,8.1,4.2c5.8,3.5,10.6-5.2,5.3-8.4
	C191.6,85.2,188.4,83.4,185.2,82.1L185.2,82.1z M380.1,6.9c-6.3-6.1-14.7-9-22.9-5.1l-66.9,31.8c-8.2,3.9-11.6,12.4-10.7,21.1
	L380.1,6.9z M466.4,131.3l-48.5-86.7l17-8.1c4.7-2.2,10-2.3,14.6-0.7c4.6,1.6,8.6,5,10.8,9.7l26.1,55c2.2,4.7,2.4,10,0.7,14.6
	c-1.6,4.6-5,8.6-9.7,10.8l-9.8,4.7C467.2,130.8,466.8,131,466.4,131.3L466.4,131.3z"/>
</svg>
